<?xml version="1.0"?>
<svg xmlns="http://www.w3.org/2000/svg" height="512px" viewBox="-69 0 512 512.001" width="512px" class=""><g><path d="m224.023438 371.230469c-4.167969 0-8.007813-2.703125-9.40625-6.632813-1.375-3.871094-.210938-8.328125 2.9375-10.988281 3.28125-2.777344 8.09375-3.125 11.746093-.867187 3.5 2.167968 5.339844 6.40625 4.53125 10.449218-.921875 4.609375-5.109375 8.039063-9.808593 8.039063zm0 0" data-original="#000000" class="active-path" data-old_color="#ffffff" fill="#ffffff"/><path d="m364.046875 351.230469h-27.554687v-132.449219c0-68.261719-46-125.980469-108.632813-143.792969v-34.15625c0-22.515625-18.320313-40.832031-40.835937-40.832031-22.515626 0-40.835938 18.316406-40.835938 40.832031v34.15625c-62.632812 17.8125-108.632812 75.53125-108.632812 143.792969v132.449219h-27.554688c-5.523438 0-10 4.476562-10 10v42.832031c0 23.890625 19.4375 43.328125 43.328125 43.328125h90.238281v11.15625c0 29.476563 23.980469 53.453125 53.457032 53.453125 29.476562 0 53.457031-23.976562 53.457031-53.453125v-11.15625h90.238281c23.890625 0 43.328125-19.4375 43.328125-43.328125v-42.832031c0-5.523438-4.476563-10-10-10zm-197.859375-310.398438c0-11.484375 9.347656-20.832031 20.835938-20.832031 11.488281 0 20.835937 9.347656 20.835937 20.832031v29.9375c-6.8125-.957031-13.765625-1.449219-20.835937-1.449219-7.070313 0-14.023438.492188-20.835938 1.449219zm54.292969 417.714844c0 18.445313-15.007813 33.453125-33.457031 33.453125-18.449219 0-33.457032-15.007812-33.457032-33.453125v-11.160156h66.914063zm133.566406-54.484375c0 12.863281-10.464844 23.328125-23.328125 23.328125h-287.390625c-12.863281 0-23.328125-10.464844-23.328125-23.328125v-32.832031h158.96875c5.523438 0 10-4.476563 10-10 0-5.523438-4.476562-10-10-10h-121.417969v-132.449219c0-71.382812 58.082031-129.460938 129.472657-129.460938 71.390624 0 129.472656 58.078126 129.472656 129.460938v132.449219h-47.371094c-5.523438 0-10 4.476562-10 10 0 5.523437 4.476562 10 10 10h84.921875zm0 0" data-original="#000000" class="active-path" data-old_color="#ffffff" fill="#ffffff"/></g> </svg>
