<?xml version="1.0"?>
<svg xmlns="http://www.w3.org/2000/svg" height="512px" viewBox="-50 0 435 435.01786" width="512px" class=""><g><path d="m106.429688 267.972656-33.984376 33.984375-15.25-15.25c-3.570312-3.574219-9.355468-3.574219-12.925781 0-3.574219 3.570313-3.574219 9.355469 0 12.925781l21.710938 21.714844c1.789062 1.785156 4.125 2.679688 6.464843 2.679688 2.339844 0 4.679688-.894532 6.464844-2.679688l40.445313-40.445312c3.574219-3.570313 3.574219-9.359375 0-12.929688-3.570313-3.570312-9.355469-3.570312-12.925781 0zm0 0" data-original="#000000" class="active-path" data-old_color="#ffffff" fill="#ffffff"/><path d="m284.070312 285.519531h-145.890624c-5.054688 0-9.144532 4.085938-9.144532 9.140625 0 5.054688 4.089844 9.144532 9.144532 9.144532h145.890624c5.054688 0 9.144532-4.089844 9.144532-9.144532 0-5.054687-4.089844-9.140625-9.144532-9.140625zm0 0" data-original="#000000" class="active-path" data-old_color="#ffffff" fill="#ffffff"/><path d="m106.429688 199.507812-33.984376 33.984376-15.25-15.25c-3.570312-3.574219-9.355468-3.574219-12.925781 0-3.574219 3.570312-3.574219 9.355468 0 12.925781l21.710938 21.714843c1.789062 1.785157 4.125 2.679688 6.464843 2.679688 2.339844 0 4.679688-.894531 6.464844-2.679688l40.445313-40.445312c3.574219-3.570312 3.574219-9.355469 0-12.929688-3.570313-3.570312-9.355469-3.570312-12.925781 0zm0 0" data-original="#000000" class="active-path" data-old_color="#ffffff" fill="#ffffff"/><path d="m284.070312 217.054688h-145.890624c-5.054688 0-9.144532 4.089843-9.144532 9.140624 0 5.054688 4.089844 9.144532 9.144532 9.144532h145.890624c5.054688 0 9.144532-4.089844 9.144532-9.144532 0-5.050781-4.089844-9.140624-9.144532-9.140624zm0 0" data-original="#000000" class="active-path" data-old_color="#ffffff" fill="#ffffff"/><path d="m106.429688 336.445312-33.984376 33.972657-15.25-15.238281c-3.570312-3.574219-9.355468-3.574219-12.925781 0-3.574219 3.570312-3.574219 9.355468 0 12.925781l21.710938 21.707031c1.789062 1.785156 4.125 2.679688 6.464843 2.679688 2.339844 0 4.679688-.894532 6.464844-2.679688l40.445313-40.4375c3.574219-3.570312 3.574219-9.355469 0-12.929688-3.570313-3.570312-9.355469-3.570312-12.925781 0zm0 0" data-original="#000000" class="active-path" data-old_color="#ffffff" fill="#ffffff"/><path d="m284.070312 353.980469h-145.890624c-5.054688 0-9.144532 4.089843-9.144532 9.144531s4.089844 9.144531 9.144532 9.144531h145.890624c5.054688 0 9.144532-4.089843 9.144532-9.144531s-4.089844-9.144531-9.144532-9.144531zm0 0" data-original="#000000" class="active-path" data-old_color="#ffffff" fill="#ffffff"/><path d="m284.070312 147.222656h-210.285156c-5.054687 0-9.140625 4.089844-9.140625 9.144532 0 5.050781 4.085938 9.140624 9.140625 9.140624h210.285156c5.054688 0 9.144532-4.089843 9.144532-9.140624 0-5.054688-4.089844-9.144532-9.144532-9.144532zm0 0" data-original="#000000" class="active-path" data-old_color="#ffffff" fill="#ffffff"/><path d="m73.785156 111.367188h111.429688c5.054687 0 9.140625-4.089844 9.140625-9.144532 0-5.054687-4.085938-9.140625-9.140625-9.140625h-111.429688c-5.054687 0-9.140625 4.085938-9.140625 9.140625 0 5.054688 4.085938 9.144532 9.140625 9.144532zm0 0" data-original="#000000" class="active-path" data-old_color="#ffffff" fill="#ffffff"/><path d="m314.007812 15.570312h-79.878906l-6.914062-11.222656c-1.671875-2.703125-4.617188-4.347656-7.785156-4.347656h-104.046876c-3.167968 0-6.113281 1.644531-7.785156 4.347656l-6.914062 11.222656h-79.890625c-11.460938 0-20.7851565 9.324219-20.7851565 20.785157v377.875c0 11.464843 9.3242185 20.789062 20.7851565 20.789062h293.214843c11.464844 0 20.785157-9.324219 20.785157-20.789062v-377.875c0-11.460938-9.320313-20.785157-20.785157-20.785157zm-193.515624 2.714844h93.828124l10.3125 16.734375h-114.453124zm196.015624 395.945313c0 1.375-1.125 2.5-2.5 2.5h-293.214843c-1.375 0-2.5-1.125-2.5-2.5v-377.875c0-1.375 1.125-2.5 2.5-2.5h68.621093l-3.394531 5.511719c-1.734375 2.820312-1.8125 6.355468-.199219 9.25 1.617188 2.890624 4.671876 4.6875 7.984376 4.6875h147.203124c3.3125 0 6.367188-1.796876 7.984376-4.6875 1.613281-2.894532 1.535156-6.429688-.199219-9.25l-3.394531-5.511719h68.609374c1.375 0 2.5 1.125 2.5 2.5zm0 0" data-original="#000000" class="active-path" data-old_color="#ffffff" fill="#ffffff"/></g> </svg>
